PathFileType	4	(X/Y/Z)	s08c0303.trc
DataRate	CameraRate	NumFrames	NumMarkers	Units	OrigDataRate	OrigDataStartFrame	OrigNumFrames
200	200	4	50	mm	200	1500	2000
Frame#	Time	racr			lacr			c7			jug			rlel			rdr			llel			ldr			s2			lic			ric			lasi			rasi			rpsi			lpsi			rgt			lgt			rth1			rth2			rth3			rth4			rlfc			rmfc			rsh1			rsh2			rsh3			rsh4			rlmal			rmmal			rcal			rtoe			rmt5			lth1			lth2			lth4			lth3			llfc			lmfc			llmal			lmmal			lcal			lmt5			lsh1			lsh2			lsh3			lsh4			ltoe			SBIKE			LBIKE			RBIKE			
		X1	Y1	Z1	X2	Y2	Z2	X3	Y3	Z3	X4	Y4	Z4	X5	Y5	Z5	X6	Y6	Z6	X7	Y7	Z7	X8	Y8	Z8	X9	Y9	Z9	X10	Y10	Z10	X11	Y11	Z11	X12	Y12	Z12	X13	Y13	Z13	X14	Y14	Z14	X15	Y15	Z15	X16	Y16	Z16	X17	Y17	Z17	X18	Y18	Z18	X19	Y19	Z19	X20	Y20	Z20	X21	Y21	Z21	X22	Y22	Z22	X23	Y23	Z23	X24	Y24	Z24	X25	Y25	Z25	X26	Y26	Z26	X27	Y27	Z27	X28	Y28	Z28	X29	Y29	Z29	X30	Y30	Z30	X31	Y31	Z31	X32	Y32	Z32	X33	Y33	Z33	X34	Y34	Z34	X35	Y35	Z35	X36	Y36	Z36	X37	Y37	Z37	X38	Y38	Z38	X39	Y39	Z39	X40	Y40	Z40	X41	Y41	Z41	X42	Y42	Z42	X43	Y43	Z43	X44	Y44	Z44	X45	Y45	Z45	X46	Y46	Z46	X47	Y47	Z47	X48	Y48	Z48	X49	Y49	Z49	X50	Y50	Z50	
1500	7.5000	850.975034	1304.413930	-21.061997	855.997218	1340.858975	-343.074681	841.111611	1378.560650	-176.245939	769.364322	1234.860121	-185.912845	645.694581	1106.816012	71.265337	774.165343	898.860721	-50.760660	713.718069	1136.732064	-496.712777	779.939523	886.082216	-434.981228	263.677602	1273.080879	-290.103839	456.871602	1227.468746	-386.388222	375.361023	1253.750136	-85.721078	450.616376	1170.754995	-346.210622	394.147603	1194.798256	-121.217896	289.384896	1309.682850	-230.354267	316.747568	1305.327602	-323.030362	274.411500	1160.553066	-79.105396	380.008037	1118.019768	-437.344000	371.611159	1011.836918	-52.636487	437.732023	953.406519	-42.723781	466.669568	871.751320	-47.647294	468.684208	973.943021	-43.814613	529.392017	769.332026	-52.450713	527.527410	758.449689	-164.743945	445.003787	665.272778	-31.074007	431.923756	577.310787	-48.975302	378.066933	511.111540	-59.329803	463.167239	568.466321	-72.761985	324.062132	402.923740	-73.592673	0.000000	0.000000	-0.000000	242.697612	384.092257	-121.752961	536.758693	336.798729	-102.292744	440.506928	315.708675	-41.060765	422.189448	990.766985	-426.960060	464.926318	916.263605	-411.970762	495.018379	926.087446	-394.005571	466.517621	827.364093	-411.018718	456.775783	696.269656	-395.497801	430.328426	679.191045	-288.938278	109.820204	451.979901	-412.390816	141.206436	443.786960	-326.078764	59.283606	490.899965	-369.986691	114.545043	281.354345	-420.186681	354.388933	615.933030	-423.376587	298.637090	554.565123	-410.453105	216.335407	520.230660	-414.226145	310.421352	537.386541	-371.895681	181.692757	228.799361	-348.969214	-203.023380	919.450930	-228.798062	-12.679021	80.026440	-427.085081	-12.453576	79.892493	-28.742863	
1501	7.5050	852.652939	1301.705273	-22.262541	855.012975	1341.691181	-344.607725	841.806292	1378.033716	-176.943134	768.978016	1234.922712	-187.276938	647.208760	1105.834728	72.630352	774.018701	898.092944	-50.089889	713.003335	1136.497791	-497.074038	777.911492	886.651163	-436.897340	263.772939	1271.733104	-289.669884	457.395354	1227.555653	-385.103640	375.175090	1249.671714	-85.249283	451.312910	1170.507111	-345.084587	394.395520	1192.655668	-119.320812	289.187132	1307.665316	-229.197921	316.919150	1304.669981	-320.627290	272.593280	1156.820153	-79.479426	382.780325	1118.186778	-436.788774	368.373495	1006.839635	-52.946497	433.136358	947.092104	-42.846183	460.696464	864.718522	-48.815958	464.568436	966.919564	-43.944096	521.680046	761.693328	-53.006931	519.837308	750.193912	-165.398942	439.286482	655.494049	-31.019345	428.055553	567.492217	-48.448105	375.068120	500.270260	-58.825520	458.637104	559.126521	-73.227429	322.947402	391.109219	-72.655500	0.000000	0.000000	-0.000000	241.775284	371.849535	-120.828142	536.344824	326.484823	-102.188374	440.035724	304.368669	-40.927440	425.979202	991.361156	-426.176146	469.444298	917.605396	-410.289978	498.754019	927.742941	-391.287926	472.493922	828.587940	-409.789150	463.580885	698.085690	-393.794515	436.226224	680.898372	-287.564177	111.495992	462.379188	-412.316682	142.689896	453.637396	-325.828031	61.168226	501.866989	-370.078395	114.831755	291.898485	-420.121698	360.186129	619.901387	-422.378494	303.028807	559.047089	-408.513469	219.532906	527.814763	-413.561429	314.042613	542.487603	-370.955460	181.604915	238.821070	-348.837091	-202.946563	919.323163	-228.524003	-12.670755	80.025561	-427.057231	-12.454611	79.837380	-28.712828	
1502	7.5100	854.326400	1299.448718	-23.902282	853.965461	1342.324125	-346.310537	842.396848	1377.865125	-177.691982	768.549982	1235.290275	-188.232365	649.209047	1105.169612	74.250197	774.020698	897.461973	-49.251662	712.176523	1136.414295	-497.507425	776.020745	886.713368	-437.329536	263.818058	1270.548029	-288.909595	457.640465	1227.612373	-383.957938	375.399092	1246.113953	-84.130877	451.906004	1170.269461	-343.781645	394.807715	1190.300606	-117.372729	289.178114	1305.593500	-227.842463	316.853223	1303.723363	-319.187795	271.212635	1153.061973	-79.135729	385.174294	1118.445321	-436.146313	365.270564	1001.712992	-53.192513	428.705399	940.683646	-43.161381	455.055384	857.656224	-49.897248	460.605715	959.731909	-44.104992	513.950538	753.797529	-53.797466	512.321968	740.960592	-165.090398	433.944916	645.963618	-31.591760	424.093490	557.695034	-48.672563	372.017605	489.542908	-58.376627	454.498727	549.913696	-73.974256	321.382351	379.595425	-71.668964	0.000000	0.000000	-0.000000	240.322282	360.067683	-119.855517	535.121861	315.277405	-102.235826	439.085855	293.079219	-40.780537	429.366100	991.999475	-425.591580	473.750915	918.899851	-408.837382	502.281546	929.468535	-388.850476	478.264839	829.954041	-408.935663	470.572983	700.249175	-391.892198	442.397476	682.689489	-286.124360	113.756555	472.827189	-412.028590	144.436861	463.348722	-325.985951	63.494355	512.749775	-370.025662	115.940310	302.493901	-420.048501	366.061281	624.283152	-421.109198	306.598235	564.821294	-407.134060	223.171530	535.525467	-412.812714	317.832999	547.796012	-369.842174	182.263392	248.954163	-348.772825	-202.894991	919.198229	-228.515982	-12.649408	80.042319	-427.026891	-12.438685	79.840979	-28.680361	
1503	7.5150	856.076566	1297.758114	-25.403380	852.872957	1343.137284	-348.307614	842.877575	1377.958388	-178.573725	768.413383	1235.710816	-189.217797	651.627362	1104.971287	75.973854	774.207367	896.835371	-48.319319	711.151063	1136.307327	-498.034867	775.369545	886.687684	-437.634517	264.358834	1269.203688	-287.113618	457.746238	1227.725808	-382.384616	376.030972	1242.652828	-82.733825	452.340059	1170.027813	-342.325473	395.390601	1187.730110	-115.392295	288.757112	1303.764279	-226.003631	316.678319	1302.823415	-317.564148	271.240475	1149.672906	-79.393373	387.146760	1118.719089	-435.358437	362.280796	996.493972	-53.412402	424.265255	934.058346	-43.571813	448.999785	850.448731	-50.992666	456.656444	952.396887	-44.329257	506.122340	745.658912	-54.687569	506.270977	732.974948	-165.081425	428.693318	636.586541	-32.451384	420.177913	547.980506	-48.925448	369.026534	479.114612	-58.217466	450.623019	541.013505	-74.241291	319.454236	368.447836	-70.918617	0.000000	0.000000	-0.000000	238.420283	348.840695	-118.872602	533.708445	304.758934	-101.515503	437.507097	281.973014	-40.672630	432.473996	992.612765	-425.164519	477.863813	920.220058	-407.632144	505.652695	931.252535	-386.944347	484.034970	831.440674	-408.203340	477.785215	702.644945	-390.290661	448.725922	684.569927	-284.554111	116.445871	483.253184	-411.699735	146.970687	473.244524	-325.602500	66.150878	523.457981	-369.836853	117.665983	313.146655	-420.020728	372.054395	628.812968	-419.319119	311.559514	571.667158	-407.047117	227.205854	543.374448	-411.880684	321.943467	553.276354	-368.460132	183.711574	259.261249	-348.737007	-202.553825	919.293993	-227.768593	-12.669790	80.068671	-426.965208	-12.415646	79.825403	-28.618264	
